<svg width="48" height="48" viewBox="0 0 48 48" fill="none" xmlns="http://www.w3.org/2000/svg">
<path d="M31.28 11.51C31.1802 9.83615 30.7001 8.20706 29.876 6.7467L28.4473 7.6547L27.5586 6.1507C26.1319 7.03233 24.9251 8.22776 24.03 9.64603M9.50529 20.2734C8.41774 18.9968 7.63568 17.489 7.21863 15.8647L8.87796 15.53L8.47729 13.83C10.117 13.4778 11.8154 13.5043 13.4433 13.9074M25.0913 37.6654C26.1708 38.9488 27.5288 39.9691 29.062 40.6487L29.6666 39.0667L31.2773 39.7427C31.8951 38.1836 32.1491 36.5041 32.02 34.832M38.6746 25.8414C40.128 25.0045 41.3713 23.8471 42.31 22.4574L40.8593 21.584L41.8086 20.1174C40.3826 19.2348 38.774 18.6892 37.1053 18.522M14.2866 35.656C12.6586 36.0594 10.9599 36.0861 9.31996 35.734L9.76196 34.0994L8.06196 33.6987C8.47897 32.0744 9.26103 30.5666 10.3486 29.29M19.7133 21.8C17.5646 20.0314 15.3586 16.9294 17.3546 11.5774L18.8953 12.234" stroke="black" stroke-width="2" stroke-linecap="round" stroke-linejoin="round"/>
<path d="M18.8267 12.262L19.4833 10.7207C24.63 13.1987 25.1873 16.964 24.8633 19.7274L25.0007 19.6727C25.834 17.1827 27.89 14.36 33.416 14.2114L33.3507 15.8334L34.9727 15.8987C34.8694 17.7671 34.2042 19.5607 33.0642 21.0446C31.9242 22.5285 30.3626 23.6334 28.584 24.2147M19.7133 21.8C17.3867 20.5814 14.018 19.9427 9.92932 23.6627L11.1 24.7874L9.97532 25.958C11.3439 27.2342 13.066 28.0672 14.916 28.3479C16.7661 28.6287 18.6578 28.344 20.3433 27.5314" stroke="black" stroke-width="2" stroke-linecap="round" stroke-linejoin="round"/>
<path d="M20.2746 27.5587C18.8407 28.693 17.7801 30.2313 17.2298 31.9748C16.6796 33.7184 16.665 35.5868 17.188 37.3387L18.7546 36.8681L19.2253 38.4347C27.302 35.5034 25.1426 28.5521 25.1426 28.5521L25.624 28.3587C25.624 28.3587 28.9906 34.7441 36.806 31.3594L36.1293 29.8761L37.5846 29.1307C36.7381 27.5137 35.4314 26.1838 33.8296 25.3088C32.2278 24.4339 30.4027 24.0532 28.5846 24.2147" stroke="black" stroke-width="2" stroke-linecap="round" stroke-linejoin="round"/>
<path d="M31.28 11.51C31.1802 9.83615 30.7001 8.20706 29.876 6.7467L28.4473 7.6547L27.5586 6.1507C26.1319 7.03233 24.9251 8.22776 24.03 9.64603M9.50529 20.2734C8.41774 18.9968 7.63568 17.489 7.21863 15.8647L8.87796 15.53L8.47729 13.83C10.117 13.4778 11.8154 13.5043 13.4433 13.9074M25.0913 37.6654C26.1708 38.9488 27.5288 39.9691 29.062 40.6487L29.6666 39.0667L31.2773 39.7427C31.8951 38.1836 32.1491 36.5041 32.02 34.832M38.6746 25.8414C40.128 25.0045 41.3713 23.8471 42.31 22.4574L40.8593 21.584L41.8086 20.1174C40.3826 19.2348 38.774 18.6892 37.1053 18.522M14.2866 35.656C12.6586 36.0594 10.9599 36.0861 9.31996 35.734L9.76196 34.0994L8.06196 33.6987C8.47897 32.0744 9.26103 30.5666 10.3486 29.29M19.7133 21.8C17.5646 20.0314 15.3586 16.9294 17.3546 11.5774L18.8953 12.234" stroke="#F06292" stroke-width="2" stroke-linecap="round" stroke-linejoin="round"/>
<path d="M18.8267 12.262L19.4833 10.7207C24.63 13.1987 25.1873 16.964 24.8633 19.7274L25.0007 19.6727C25.834 17.1827 27.89 14.36 33.416 14.2114L33.3507 15.8334L34.9727 15.8987C34.8694 17.7671 34.2042 19.5607 33.0642 21.0446C31.9242 22.5285 30.3626 23.6334 28.584 24.2147M19.7133 21.8C17.3867 20.5814 14.018 19.9427 9.92932 23.6627L11.1 24.7874L9.97532 25.958C11.3439 27.2342 13.066 28.0672 14.916 28.3479C16.7661 28.6287 18.6578 28.344 20.3433 27.5314" stroke="#F06292" stroke-width="2" stroke-linecap="round" stroke-linejoin="round"/>
<path d="M20.2746 27.5587C18.8407 28.693 17.7801 30.2313 17.2298 31.9748C16.6796 33.7184 16.665 35.5868 17.188 37.3387L18.7546 36.8681L19.2253 38.4347C27.302 35.5034 25.1426 28.5521 25.1426 28.5521L25.624 28.3587C25.624 28.3587 28.9906 34.7441 36.806 31.3594L36.1293 29.8761L37.5846 29.1307C36.7381 27.5137 35.4314 26.1838 33.8296 25.3088C32.2278 24.4339 30.4027 24.0532 28.5846 24.2147" stroke="#F06292" stroke-width="2" stroke-linecap="round" stroke-linejoin="round"/>
</svg>
