<svg width="176" height="19" viewBox="0 0 176 19" fill="none" xmlns="http://www.w3.org/2000/svg">
<path d="M6.28 0.999999C6.97333 0.999999 7.62 1.2 8.22 1.6C8.83333 2 9.32667 2.54 9.7 3.22C10.0733 3.9 10.26 4.66 10.26 5.5C10.26 6.32667 10.0733 7.08 9.7 7.76C9.32667 8.44 8.83333 8.98667 8.22 9.4C7.62 9.8 6.97333 10 6.28 10H2.6L2.8 9.64V13.78C2.8 14.1267 2.69333 14.42 2.48 14.66C2.26667 14.8867 1.98667 15 1.64 15C1.30667 15 1.03333 14.8867 0.82 14.66C0.606667 14.42 0.5 14.1267 0.5 13.78V2.22C0.5 1.87333 0.613333 1.58667 0.84 1.36C1.08 1.12 1.37333 0.999999 1.72 0.999999H6.28ZM6.28 7.72C6.53333 7.72 6.78 7.61333 7.02 7.4C7.26 7.18667 7.46 6.91333 7.62 6.58C7.78 6.23333 7.86 5.87333 7.86 5.5C7.86 5.11333 7.78 4.75333 7.62 4.42C7.46 4.08667 7.26 3.82 7.02 3.62C6.78 3.40667 6.53333 3.3 6.28 3.3H2.56L2.8 2.94V8.04L2.58 7.72H6.28ZM13.5508 15C13.2041 15 12.9174 14.8867 12.6908 14.66C12.4641 14.42 12.3508 14.1267 12.3508 13.78V5.52C12.3508 5.17333 12.4641 4.88667 12.6908 4.66C12.9174 4.42 13.2041 4.3 13.5508 4.3C13.8974 4.3 14.1841 4.42 14.4108 4.66C14.6374 4.88667 14.7508 5.17333 14.7508 5.52V7.4L14.6108 6.06C14.7574 5.74 14.9441 5.46 15.1708 5.22C15.4108 4.96667 15.6774 4.76 15.9708 4.6C16.2641 4.42667 16.5774 4.3 16.9108 4.22C17.2441 4.14 17.5774 4.1 17.9108 4.1C18.3108 4.1 18.6441 4.21333 18.9108 4.44C19.1908 4.66667 19.3308 4.93333 19.3308 5.24C19.3308 5.68 19.2174 6 18.9908 6.2C18.7641 6.38667 18.5174 6.48 18.2508 6.48C17.9974 6.48 17.7641 6.43333 17.5508 6.34C17.3508 6.24667 17.1174 6.2 16.8508 6.2C16.6108 6.2 16.3641 6.26 16.1108 6.38C15.8708 6.48667 15.6441 6.66 15.4308 6.9C15.2308 7.14 15.0641 7.44 14.9308 7.8C14.8108 8.14667 14.7508 8.56 14.7508 9.04V13.78C14.7508 14.1267 14.6374 14.42 14.4108 14.66C14.1841 14.8867 13.8974 15 13.5508 15ZM25.6134 15.2C24.4801 15.2 23.4934 14.9667 22.6534 14.5C21.8268 14.02 21.1868 13.3733 20.7334 12.56C20.2934 11.7467 20.0734 10.8267 20.0734 9.8C20.0734 8.6 20.3134 7.58 20.7934 6.74C21.2868 5.88667 21.9268 5.23333 22.7134 4.78C23.5001 4.32667 24.3334 4.1 25.2134 4.1C25.8934 4.1 26.5334 4.24 27.1334 4.52C27.7468 4.8 28.2868 5.18667 28.7534 5.68C29.2201 6.16 29.5868 6.72 29.8534 7.36C30.1334 8 30.2734 8.68 30.2734 9.4C30.2601 9.72 30.1334 9.98 29.8934 10.18C29.6534 10.38 29.3734 10.48 29.0534 10.48H21.4134L20.8134 8.48H28.1534L27.7134 8.88V8.34C27.6868 7.95333 27.5468 7.60667 27.2934 7.3C27.0534 6.99333 26.7468 6.75333 26.3734 6.58C26.0134 6.39333 25.6268 6.3 25.2134 6.3C24.8134 6.3 24.4401 6.35333 24.0934 6.46C23.7468 6.56667 23.4468 6.74667 23.1934 7C22.9401 7.25333 22.7401 7.59333 22.5934 8.02C22.4468 8.44667 22.3734 8.98667 22.3734 9.64C22.3734 10.36 22.5201 10.9733 22.8134 11.48C23.1201 11.9733 23.5068 12.3533 23.9734 12.62C24.4534 12.8733 24.9601 13 25.4934 13C25.9868 13 26.3801 12.96 26.6734 12.88C26.9668 12.8 27.2001 12.7067 27.3734 12.6C27.5601 12.48 27.7268 12.38 27.8734 12.3C28.1134 12.18 28.3401 12.12 28.5534 12.12C28.8468 12.12 29.0868 12.22 29.2734 12.42C29.4734 12.62 29.5734 12.8533 29.5734 13.12C29.5734 13.48 29.3868 13.8067 29.0134 14.1C28.6668 14.3933 28.1801 14.6533 27.5534 14.88C26.9268 15.0933 26.2801 15.2 25.6134 15.2ZM32.4903 4.5H37.2303C37.5503 4.5 37.817 4.60667 38.0303 4.82C38.2436 5.03333 38.3503 5.3 38.3503 5.62C38.3503 5.92667 38.2436 6.18667 38.0303 6.4C37.817 6.6 37.5503 6.7 37.2303 6.7H32.4903C32.1703 6.7 31.9036 6.59333 31.6903 6.38C31.477 6.16667 31.3703 5.9 31.3703 5.58C31.3703 5.27333 31.477 5.02 31.6903 4.82C31.9036 4.60667 32.1703 4.5 32.4903 4.5ZM34.6303 2C34.977 2 35.257 2.12 35.4703 2.36C35.697 2.58667 35.8103 2.87333 35.8103 3.22V12.12C35.8103 12.3067 35.8436 12.46 35.9103 12.58C35.9903 12.7 36.0903 12.7867 36.2103 12.84C36.3436 12.8933 36.4836 12.92 36.6303 12.92C36.7903 12.92 36.937 12.8933 37.0703 12.84C37.2036 12.7733 37.357 12.74 37.5303 12.74C37.717 12.74 37.8836 12.8267 38.0303 13C38.1903 13.1733 38.2703 13.4133 38.2703 13.72C38.2703 14.0933 38.0636 14.4 37.6503 14.64C37.2503 14.88 36.817 15 36.3503 15C36.0703 15 35.757 14.98 35.4103 14.94C35.077 14.8867 34.757 14.7733 34.4503 14.6C34.157 14.4133 33.9103 14.1333 33.7103 13.76C33.5103 13.3867 33.4103 12.8733 33.4103 12.22V3.22C33.4103 2.87333 33.5236 2.58667 33.7503 2.36C33.9903 2.12 34.2836 2 34.6303 2ZM40.6739 4.5H45.4139C45.7339 4.5 46.0006 4.60667 46.2139 4.82C46.4272 5.03333 46.5339 5.3 46.5339 5.62C46.5339 5.92667 46.4272 6.18667 46.2139 6.4C46.0006 6.6 45.7339 6.7 45.4139 6.7H40.6739C40.3539 6.7 40.0872 6.59333 39.8739 6.38C39.6606 6.16667 39.5539 5.9 39.5539 5.58C39.5539 5.27333 39.6606 5.02 39.8739 4.82C40.0872 4.60667 40.3539 4.5 40.6739 4.5ZM42.8139 2C43.1606 2 43.4406 2.12 43.6539 2.36C43.8806 2.58667 43.9939 2.87333 43.9939 3.22V12.12C43.9939 12.3067 44.0272 12.46 44.0939 12.58C44.1739 12.7 44.2739 12.7867 44.3939 12.84C44.5272 12.8933 44.6672 12.92 44.8139 12.92C44.9739 12.92 45.1206 12.8933 45.2539 12.84C45.3872 12.7733 45.5406 12.74 45.7139 12.74C45.9006 12.74 46.0672 12.8267 46.2139 13C46.3739 13.1733 46.4539 13.4133 46.4539 13.72C46.4539 14.0933 46.2472 14.4 45.8339 14.64C45.4339 14.88 45.0006 15 44.5339 15C44.2539 15 43.9406 14.98 43.5939 14.94C43.2606 14.8867 42.9406 14.7733 42.6339 14.6C42.3406 14.4133 42.0939 14.1333 41.8939 13.76C41.6939 13.3867 41.5939 12.8733 41.5939 12.22V3.22C41.5939 2.87333 41.7072 2.58667 41.9339 2.36C42.1739 2.12 42.4672 2 42.8139 2ZM56.6775 4.3C57.0242 4.3 57.3108 4.42 57.5375 4.66C57.7642 4.88667 57.8775 5.17333 57.8775 5.52V14.02C57.8775 15.2467 57.6442 16.22 57.1775 16.94C56.7242 17.6733 56.1108 18.2 55.3375 18.52C54.5642 18.84 53.6975 19 52.7375 19C52.3108 19 51.8575 18.9667 51.3775 18.9C50.8975 18.8333 50.5042 18.7333 50.1975 18.6C49.7975 18.4267 49.5175 18.2067 49.3575 17.94C49.2108 17.6867 49.1842 17.4133 49.2775 17.12C49.3975 16.7333 49.5908 16.4667 49.8575 16.32C50.1242 16.1867 50.4042 16.1733 50.6975 16.28C50.9108 16.3467 51.1908 16.4467 51.5375 16.58C51.8842 16.7267 52.2842 16.8 52.7375 16.8C53.3508 16.8 53.8575 16.7133 54.2575 16.54C54.6708 16.38 54.9775 16.1 55.1775 15.7C55.3908 15.3133 55.4975 14.78 55.4975 14.1V12.76L55.9175 13.24C55.6908 13.68 55.4042 14.0467 55.0575 14.34C54.7242 14.62 54.3242 14.8333 53.8575 14.98C53.3908 15.1267 52.8575 15.2 52.2575 15.2C51.5508 15.2 50.9308 15.04 50.3975 14.72C49.8775 14.3867 49.4708 13.9333 49.1775 13.36C48.8842 12.7733 48.7375 12.1067 48.7375 11.36V5.52C48.7375 5.17333 48.8508 4.88667 49.0775 4.66C49.3042 4.42 49.5908 4.3 49.9375 4.3C50.2842 4.3 50.5708 4.42 50.7975 4.66C51.0242 4.88667 51.1375 5.17333 51.1375 5.52V10.64C51.1375 11.5067 51.3242 12.12 51.6975 12.48C52.0842 12.8267 52.6175 13 53.2975 13C53.7642 13 54.1575 12.9133 54.4775 12.74C54.7975 12.5533 55.0442 12.2867 55.2175 11.94C55.3908 11.58 55.4775 11.1467 55.4775 10.64V5.52C55.4775 5.17333 55.5908 4.88667 55.8175 4.66C56.0442 4.42 56.3308 4.3 56.6775 4.3ZM67.5413 15C67.1679 15 66.8613 14.8867 66.6213 14.66C66.3946 14.42 66.2813 14.1267 66.2813 13.78V2.22C66.2813 1.87333 66.3946 1.58667 66.6213 1.36C66.8613 1.12 67.1546 0.999999 67.5013 0.999999H74.0013C74.3479 0.999999 74.6346 1.11333 74.8613 1.34C75.1013 1.55333 75.2213 1.83333 75.2213 2.18C75.2213 2.47333 75.1013 2.73333 74.8613 2.96C74.6346 3.18667 74.3479 3.3 74.0013 3.3H68.6013L68.7813 3.06V7.08L68.6413 6.82H73.1013C73.4479 6.82 73.7346 6.93333 73.9613 7.16C74.2013 7.37333 74.3213 7.65333 74.3213 8C74.3213 8.29333 74.2013 8.55333 73.9613 8.78C73.7346 9.00667 73.4479 9.12 73.1013 9.12H68.6013L68.7813 8.94V13.78C68.7813 14.1267 68.6546 14.42 68.4013 14.66C68.1613 14.8867 67.8746 15 67.5413 15ZM79.9117 13.78C79.9117 14.1267 79.7917 14.42 79.5517 14.66C79.3251 14.8867 79.0384 15 78.6917 15C78.3584 15 78.0784 14.8867 77.8517 14.66C77.6251 14.42 77.5117 14.1267 77.5117 13.78V1.42C77.5117 1.07333 77.6251 0.786666 77.8517 0.559999C78.0917 0.319999 78.3851 0.2 78.7317 0.2C79.0784 0.2 79.3584 0.319999 79.5717 0.559999C79.7984 0.786666 79.9117 1.07333 79.9117 1.42V13.78ZM92.887 9.66C92.887 10.7533 92.6404 11.72 92.147 12.56C91.667 13.3867 91.0137 14.0333 90.187 14.5C89.3737 14.9667 88.4604 15.2 87.447 15.2C86.4337 15.2 85.5137 14.9667 84.687 14.5C83.8737 14.0333 83.2204 13.3867 82.727 12.56C82.247 11.72 82.007 10.7533 82.007 9.66C82.007 8.56667 82.247 7.60667 82.727 6.78C83.2204 5.94 83.8737 5.28667 84.687 4.82C85.5137 4.34 86.4337 4.1 87.447 4.1C88.4604 4.1 89.3737 4.34 90.187 4.82C91.0137 5.28667 91.667 5.94 92.147 6.78C92.6404 7.60667 92.887 8.56667 92.887 9.66ZM90.487 9.66C90.487 8.98 90.347 8.39333 90.067 7.9C89.8004 7.39333 89.4337 7 88.967 6.72C88.5137 6.44 88.007 6.3 87.447 6.3C86.887 6.3 86.3737 6.44 85.907 6.72C85.4537 7 85.087 7.39333 84.807 7.9C84.5404 8.39333 84.407 8.98 84.407 9.66C84.407 10.3267 84.5404 10.9133 84.807 11.42C85.087 11.9133 85.4537 12.3 85.907 12.58C86.3737 12.86 86.887 13 87.447 13C88.007 13 88.5137 12.86 88.967 12.58C89.4337 12.3 89.8004 11.9133 90.067 11.42C90.347 10.9133 90.487 10.3267 90.487 9.66ZM107.308 4.3C107.614 4.3 107.881 4.42 108.108 4.66C108.334 4.88667 108.448 5.18 108.448 5.54C108.448 5.63333 108.441 5.72 108.428 5.8C108.414 5.86667 108.394 5.93333 108.368 6L105.308 14.24C105.214 14.5067 105.048 14.7133 104.808 14.86C104.568 14.9933 104.314 15.04 104.048 15C103.594 14.9733 103.254 14.72 103.028 14.24L101.048 8.54L101.568 8.56L99.7075 14.24C99.4808 14.72 99.1408 14.9733 98.6875 15C98.4342 15.04 98.1808 14.9933 97.9275 14.86C97.6875 14.7133 97.5208 14.5067 97.4275 14.24L94.3675 6C94.3142 5.85333 94.2875 5.7 94.2875 5.54C94.2875 5.22 94.3942 4.93333 94.6075 4.68C94.8208 4.42667 95.1142 4.3 95.4875 4.3C95.7408 4.3 95.9675 4.36 96.1675 4.48C96.3675 4.6 96.5075 4.79333 96.5875 5.06L99.0075 11.62L98.5075 11.58L100.328 6.64C100.541 6.14667 100.908 5.9 101.428 5.9C101.721 5.9 101.941 5.96667 102.088 6.1C102.248 6.22 102.374 6.4 102.468 6.64L104.288 11.58L103.688 11.66L106.148 5.06C106.308 4.55333 106.694 4.3 107.308 4.3ZM115.379 15.2C114.246 15.2 113.259 14.9667 112.419 14.5C111.592 14.02 110.952 13.3733 110.499 12.56C110.059 11.7467 109.839 10.8267 109.839 9.8C109.839 8.6 110.079 7.58 110.559 6.74C111.052 5.88667 111.692 5.23333 112.479 4.78C113.266 4.32667 114.099 4.1 114.979 4.1C115.659 4.1 116.299 4.24 116.899 4.52C117.512 4.8 118.052 5.18667 118.519 5.68C118.986 6.16 119.352 6.72 119.619 7.36C119.899 8 120.039 8.68 120.039 9.4C120.026 9.72 119.899 9.98 119.659 10.18C119.419 10.38 119.139 10.48 118.819 10.48H111.179L110.579 8.48H117.919L117.479 8.88V8.34C117.452 7.95333 117.312 7.60667 117.059 7.3C116.819 6.99333 116.512 6.75333 116.139 6.58C115.779 6.39333 115.392 6.3 114.979 6.3C114.579 6.3 114.206 6.35333 113.859 6.46C113.512 6.56667 113.212 6.74667 112.959 7C112.706 7.25333 112.506 7.59333 112.359 8.02C112.212 8.44667 112.139 8.98667 112.139 9.64C112.139 10.36 112.286 10.9733 112.579 11.48C112.886 11.9733 113.272 12.3533 113.739 12.62C114.219 12.8733 114.726 13 115.259 13C115.752 13 116.146 12.96 116.439 12.88C116.732 12.8 116.966 12.7067 117.139 12.6C117.326 12.48 117.492 12.38 117.639 12.3C117.879 12.18 118.106 12.12 118.319 12.12C118.612 12.12 118.852 12.22 119.039 12.42C119.239 12.62 119.339 12.8533 119.339 13.12C119.339 13.48 119.152 13.8067 118.779 14.1C118.432 14.3933 117.946 14.6533 117.319 14.88C116.692 15.0933 116.046 15.2 115.379 15.2ZM123.336 15C122.989 15 122.703 14.8867 122.476 14.66C122.249 14.42 122.136 14.1267 122.136 13.78V5.52C122.136 5.17333 122.249 4.88667 122.476 4.66C122.703 4.42 122.989 4.3 123.336 4.3C123.683 4.3 123.969 4.42 124.196 4.66C124.423 4.88667 124.536 5.17333 124.536 5.52V7.4L124.396 6.06C124.543 5.74 124.729 5.46 124.956 5.22C125.196 4.96667 125.463 4.76 125.756 4.6C126.049 4.42667 126.363 4.3 126.696 4.22C127.029 4.14 127.363 4.1 127.696 4.1C128.096 4.1 128.429 4.21333 128.696 4.44C128.976 4.66667 129.116 4.93333 129.116 5.24C129.116 5.68 129.003 6 128.776 6.2C128.549 6.38667 128.303 6.48 128.036 6.48C127.783 6.48 127.549 6.43333 127.336 6.34C127.136 6.24667 126.903 6.2 126.636 6.2C126.396 6.2 126.149 6.26 125.896 6.38C125.656 6.48667 125.429 6.66 125.216 6.9C125.016 7.14 124.849 7.44 124.716 7.8C124.596 8.14667 124.536 8.56 124.536 9.04V13.78C124.536 14.1267 124.423 14.42 124.196 14.66C123.969 14.8867 123.683 15 123.336 15ZM137.893 0.999999C138.213 0.999999 138.493 1.12 138.733 1.36C138.987 1.58667 139.113 1.87333 139.113 2.22V13.78C139.113 14.1267 138.987 14.42 138.733 14.66C138.48 14.8867 138.187 15 137.853 15C137.48 15 137.18 14.8867 136.953 14.66C136.727 14.42 136.613 14.1267 136.613 13.78V2.22C136.613 1.87333 136.733 1.58667 136.973 1.36C137.213 1.12 137.52 0.999999 137.893 0.999999ZM146.753 0.999999C147.127 0.999999 147.427 1.12 147.653 1.36C147.88 1.58667 147.993 1.87333 147.993 2.22V13.78C147.993 14.1267 147.873 14.42 147.633 14.66C147.407 14.8867 147.1 15 146.713 15C146.393 15 146.107 14.8867 145.853 14.66C145.613 14.42 145.493 14.1267 145.493 13.78V2.22C145.493 1.87333 145.62 1.58667 145.873 1.36C146.127 1.12 146.42 0.999999 146.753 0.999999ZM137.833 6.82H146.753V9.12H137.833V6.82ZM159.548 4.1C159.895 4.1 160.182 4.21333 160.408 4.44C160.635 4.66667 160.748 4.96 160.748 5.32V13.78C160.748 14.1267 160.635 14.42 160.408 14.66C160.182 14.8867 159.895 15 159.548 15C159.202 15 158.915 14.8867 158.688 14.66C158.462 14.42 158.348 14.1267 158.348 13.78V12.8L158.788 12.98C158.788 13.1533 158.695 13.3667 158.508 13.62C158.322 13.86 158.068 14.1 157.748 14.34C157.428 14.58 157.048 14.7867 156.608 14.96C156.182 15.12 155.715 15.2 155.208 15.2C154.288 15.2 153.455 14.9667 152.708 14.5C151.962 14.02 151.368 13.3667 150.928 12.54C150.502 11.7 150.288 10.74 150.288 9.66C150.288 8.56667 150.502 7.60667 150.928 6.78C151.368 5.94 151.955 5.28667 152.688 4.82C153.422 4.34 154.235 4.1 155.128 4.1C155.702 4.1 156.228 4.18667 156.708 4.36C157.188 4.53333 157.602 4.75333 157.948 5.02C158.308 5.28667 158.582 5.56 158.768 5.84C158.968 6.10667 159.068 6.33333 159.068 6.52L158.348 6.78V5.32C158.348 4.97333 158.462 4.68667 158.688 4.46C158.915 4.22 159.202 4.1 159.548 4.1ZM155.508 13C156.095 13 156.608 12.8533 157.048 12.56C157.488 12.2667 157.828 11.8667 158.068 11.36C158.322 10.8533 158.448 10.2867 158.448 9.66C158.448 9.02 158.322 8.44667 158.068 7.94C157.828 7.43333 157.488 7.03333 157.048 6.74C156.608 6.44667 156.095 6.3 155.508 6.3C154.935 6.3 154.428 6.44667 153.988 6.74C153.548 7.03333 153.202 7.43333 152.948 7.94C152.708 8.44667 152.588 9.02 152.588 9.66C152.588 10.2867 152.708 10.8533 152.948 11.36C153.202 11.8667 153.548 12.2667 153.988 12.56C154.428 12.8533 154.935 13 155.508 13ZM165.607 13.78C165.607 14.1267 165.494 14.42 165.267 14.66C165.04 14.8867 164.754 15 164.407 15C164.06 15 163.774 14.8867 163.547 14.66C163.32 14.42 163.207 14.1267 163.207 13.78V5.52C163.207 5.17333 163.32 4.88667 163.547 4.66C163.774 4.42 164.06 4.3 164.407 4.3C164.754 4.3 165.04 4.42 165.267 4.66C165.494 4.88667 165.607 5.17333 165.607 5.52V13.78ZM164.387 3C163.934 3 163.614 2.92667 163.427 2.78C163.24 2.63333 163.147 2.37333 163.147 2V1.62C163.147 1.23333 163.247 0.973333 163.447 0.84C163.66 0.693333 163.98 0.619999 164.407 0.619999C164.874 0.619999 165.2 0.693333 165.387 0.84C165.574 0.986666 165.667 1.24667 165.667 1.62V2C165.667 2.38667 165.567 2.65333 165.367 2.8C165.167 2.93333 164.84 3 164.387 3ZM169.273 15C168.927 15 168.64 14.8867 168.413 14.66C168.187 14.42 168.073 14.1267 168.073 13.78V5.52C168.073 5.17333 168.187 4.88667 168.413 4.66C168.64 4.42 168.927 4.3 169.273 4.3C169.62 4.3 169.907 4.42 170.133 4.66C170.36 4.88667 170.473 5.17333 170.473 5.52V7.4L170.333 6.06C170.48 5.74 170.667 5.46 170.893 5.22C171.133 4.96667 171.4 4.76 171.693 4.6C171.987 4.42667 172.3 4.3 172.633 4.22C172.967 4.14 173.3 4.1 173.633 4.1C174.033 4.1 174.367 4.21333 174.633 4.44C174.913 4.66667 175.053 4.93333 175.053 5.24C175.053 5.68 174.94 6 174.713 6.2C174.487 6.38667 174.24 6.48 173.973 6.48C173.72 6.48 173.487 6.43333 173.273 6.34C173.073 6.24667 172.84 6.2 172.573 6.2C172.333 6.2 172.087 6.26 171.833 6.38C171.593 6.48667 171.367 6.66 171.153 6.9C170.953 7.14 170.787 7.44 170.653 7.8C170.533 8.14667 170.473 8.56 170.473 9.04V13.78C170.473 14.1267 170.36 14.42 170.133 14.66C169.907 14.8867 169.62 15 169.273 15Z" fill="black"/>
</svg>
